<mxfile host="app.diagrams.net" modified="2024-01-04T03:56:09.190Z" agent="Mozilla/5.0 (Macintosh; Intel Mac OS X 10.15; rv:122.0) Gecko/20100101 Firefox/122.0" etag="fVRjjSxV5oYjXhtlj8_c" version="22.1.16" type="github">
  <diagram name="Page-1" id="9f46799a-70d6-7492-0946-bef42562c5a5">
    <mxGraphModel dx="2427" dy="713" grid="1" gridSize="10" guides="1" tooltips="1" connect="1" arrows="1" fold="1" page="1" pageScale="1" pageWidth="1100" pageHeight="850" background="none" math="0" shadow="0">
      <root>
        <mxCell id="0" />
        <mxCell id="1" parent="0" />
        <mxCell id="Y99GI6rGSwbLpOmnozQ8-1" value="Despawn" style="rounded=0;whiteSpace=wrap;html=1;" vertex="1" parent="1">
          <mxGeometry x="1280" y="290" width="120" height="60" as="geometry" />
        </mxCell>
        <mxCell id="Y99GI6rGSwbLpOmnozQ8-6" style="edgeStyle=orthogonalEdgeStyle;rounded=0;orthogonalLoop=1;jettySize=auto;html=1;exitX=1;exitY=0.5;exitDx=0;exitDy=0;entryX=0;entryY=0.5;entryDx=0;entryDy=0;shape=flexArrow;" edge="1" parent="1" source="Y99GI6rGSwbLpOmnozQ8-2" target="Y99GI6rGSwbLpOmnozQ8-3">
          <mxGeometry relative="1" as="geometry" />
        </mxCell>
        <mxCell id="Y99GI6rGSwbLpOmnozQ8-2" value="Spawn" style="rounded=0;whiteSpace=wrap;html=1;" vertex="1" parent="1">
          <mxGeometry x="-170" y="290" width="120" height="60" as="geometry" />
        </mxCell>
        <mxCell id="Y99GI6rGSwbLpOmnozQ8-3" value="Observation State" style="rounded=0;whiteSpace=wrap;html=1;" vertex="1" parent="1">
          <mxGeometry x="50" y="290" width="120" height="60" as="geometry" />
        </mxCell>
        <mxCell id="Y99GI6rGSwbLpOmnozQ8-10" style="edgeStyle=orthogonalEdgeStyle;rounded=0;orthogonalLoop=1;jettySize=auto;html=1;exitX=1;exitY=0.5;exitDx=0;exitDy=0;entryX=0;entryY=0.5;entryDx=0;entryDy=0;shape=flexArrow;" edge="1" parent="1" source="Y99GI6rGSwbLpOmnozQ8-21" target="Y99GI6rGSwbLpOmnozQ8-8">
          <mxGeometry relative="1" as="geometry" />
        </mxCell>
        <mxCell id="Y99GI6rGSwbLpOmnozQ8-4" value="Stalking State" style="rounded=0;whiteSpace=wrap;html=1;" vertex="1" parent="1">
          <mxGeometry x="460" y="290" width="120" height="60" as="geometry" />
        </mxCell>
        <mxCell id="Y99GI6rGSwbLpOmnozQ8-7" style="edgeStyle=orthogonalEdgeStyle;rounded=0;orthogonalLoop=1;jettySize=auto;html=1;exitX=1;exitY=0.5;exitDx=0;exitDy=0;entryX=0;entryY=0.5;entryDx=0;entryDy=0;shape=flexArrow;" edge="1" parent="1" source="Y99GI6rGSwbLpOmnozQ8-18" target="Y99GI6rGSwbLpOmnozQ8-4">
          <mxGeometry relative="1" as="geometry" />
        </mxCell>
        <mxCell id="Y99GI6rGSwbLpOmnozQ8-9" style="edgeStyle=orthogonalEdgeStyle;rounded=0;orthogonalLoop=1;jettySize=auto;html=1;exitX=1;exitY=0.5;exitDx=0;exitDy=0;entryX=0;entryY=0.5;entryDx=0;entryDy=0;shape=flexArrow;" edge="1" parent="1" source="Y99GI6rGSwbLpOmnozQ8-23" target="Y99GI6rGSwbLpOmnozQ8-1">
          <mxGeometry relative="1" as="geometry" />
        </mxCell>
        <mxCell id="Y99GI6rGSwbLpOmnozQ8-8" value="Chasing State" style="rounded=0;whiteSpace=wrap;html=1;" vertex="1" parent="1">
          <mxGeometry x="870" y="290" width="120" height="60" as="geometry" />
        </mxCell>
        <mxCell id="Y99GI6rGSwbLpOmnozQ8-17" value="" style="edgeStyle=orthogonalEdgeStyle;rounded=0;orthogonalLoop=1;jettySize=auto;html=1;exitX=1;exitY=0.5;exitDx=0;exitDy=0;entryX=0;entryY=0.5;entryDx=0;entryDy=0;shape=flexArrow;" edge="1" parent="1" source="Y99GI6rGSwbLpOmnozQ8-3" target="Y99GI6rGSwbLpOmnozQ8-18">
          <mxGeometry relative="1" as="geometry">
            <mxPoint x="390" y="320" as="sourcePoint" />
            <mxPoint x="470" y="320" as="targetPoint" />
          </mxGeometry>
        </mxCell>
        <mxCell id="Y99GI6rGSwbLpOmnozQ8-29" style="edgeStyle=orthogonalEdgeStyle;rounded=0;orthogonalLoop=1;jettySize=auto;html=1;entryX=0.5;entryY=1;entryDx=0;entryDy=0;" edge="1" parent="1" source="Y99GI6rGSwbLpOmnozQ8-18" target="Y99GI6rGSwbLpOmnozQ8-1">
          <mxGeometry relative="1" as="geometry">
            <Array as="points">
              <mxPoint x="310" y="440" />
              <mxPoint x="1340" y="440" />
            </Array>
          </mxGeometry>
        </mxCell>
        <mxCell id="Y99GI6rGSwbLpOmnozQ8-37" style="edgeStyle=orthogonalEdgeStyle;rounded=0;orthogonalLoop=1;jettySize=auto;html=1;entryX=0.5;entryY=0;entryDx=0;entryDy=0;" edge="1" parent="1" source="Y99GI6rGSwbLpOmnozQ8-18" target="Y99GI6rGSwbLpOmnozQ8-8">
          <mxGeometry relative="1" as="geometry">
            <Array as="points">
              <mxPoint x="310" y="220" />
              <mxPoint x="930" y="220" />
            </Array>
          </mxGeometry>
        </mxCell>
        <mxCell id="Y99GI6rGSwbLpOmnozQ8-18" value="" style="rhombus;whiteSpace=wrap;html=1;" vertex="1" parent="1">
          <mxGeometry x="270" y="280" width="80" height="80" as="geometry" />
        </mxCell>
        <mxCell id="Y99GI6rGSwbLpOmnozQ8-20" value="" style="edgeStyle=orthogonalEdgeStyle;rounded=0;orthogonalLoop=1;jettySize=auto;html=1;exitX=1;exitY=0.5;exitDx=0;exitDy=0;entryX=0;entryY=0.5;entryDx=0;entryDy=0;shape=flexArrow;" edge="1" parent="1" source="Y99GI6rGSwbLpOmnozQ8-4" target="Y99GI6rGSwbLpOmnozQ8-21">
          <mxGeometry relative="1" as="geometry">
            <mxPoint x="590" y="320" as="sourcePoint" />
            <mxPoint x="670" y="320" as="targetPoint" />
          </mxGeometry>
        </mxCell>
        <mxCell id="Y99GI6rGSwbLpOmnozQ8-25" style="edgeStyle=orthogonalEdgeStyle;rounded=0;orthogonalLoop=1;jettySize=auto;html=1;entryX=0.5;entryY=0;entryDx=0;entryDy=0;" edge="1" parent="1" source="Y99GI6rGSwbLpOmnozQ8-21" target="Y99GI6rGSwbLpOmnozQ8-3">
          <mxGeometry relative="1" as="geometry">
            <Array as="points">
              <mxPoint x="720" y="260" />
              <mxPoint x="110" y="260" />
            </Array>
          </mxGeometry>
        </mxCell>
        <mxCell id="Y99GI6rGSwbLpOmnozQ8-28" style="edgeStyle=orthogonalEdgeStyle;rounded=0;orthogonalLoop=1;jettySize=auto;html=1;entryX=0.75;entryY=1;entryDx=0;entryDy=0;" edge="1" parent="1" source="Y99GI6rGSwbLpOmnozQ8-21" target="Y99GI6rGSwbLpOmnozQ8-1">
          <mxGeometry relative="1" as="geometry">
            <Array as="points">
              <mxPoint x="720" y="400" />
              <mxPoint x="1370" y="400" />
            </Array>
          </mxGeometry>
        </mxCell>
        <mxCell id="Y99GI6rGSwbLpOmnozQ8-21" value="" style="rhombus;whiteSpace=wrap;html=1;" vertex="1" parent="1">
          <mxGeometry x="680" y="280" width="80" height="80" as="geometry" />
        </mxCell>
        <mxCell id="Y99GI6rGSwbLpOmnozQ8-22" value="" style="edgeStyle=orthogonalEdgeStyle;rounded=0;orthogonalLoop=1;jettySize=auto;html=1;exitX=1;exitY=0.5;exitDx=0;exitDy=0;entryX=0;entryY=0.5;entryDx=0;entryDy=0;shape=flexArrow;" edge="1" parent="1" source="Y99GI6rGSwbLpOmnozQ8-8" target="Y99GI6rGSwbLpOmnozQ8-23">
          <mxGeometry relative="1" as="geometry">
            <mxPoint x="790" y="320" as="sourcePoint" />
            <mxPoint x="870" y="320" as="targetPoint" />
          </mxGeometry>
        </mxCell>
        <mxCell id="Y99GI6rGSwbLpOmnozQ8-31" style="edgeStyle=orthogonalEdgeStyle;rounded=0;orthogonalLoop=1;jettySize=auto;html=1;entryX=0.5;entryY=0;entryDx=0;entryDy=0;" edge="1" parent="1" source="Y99GI6rGSwbLpOmnozQ8-23" target="Y99GI6rGSwbLpOmnozQ8-4">
          <mxGeometry relative="1" as="geometry">
            <Array as="points">
              <mxPoint x="1140" y="180" />
              <mxPoint x="520" y="180" />
            </Array>
          </mxGeometry>
        </mxCell>
        <mxCell id="Y99GI6rGSwbLpOmnozQ8-33" style="edgeStyle=orthogonalEdgeStyle;rounded=0;orthogonalLoop=1;jettySize=auto;html=1;entryX=0.5;entryY=1;entryDx=0;entryDy=0;" edge="1" parent="1" source="Y99GI6rGSwbLpOmnozQ8-23" target="Y99GI6rGSwbLpOmnozQ8-3">
          <mxGeometry relative="1" as="geometry">
            <Array as="points">
              <mxPoint x="1140" y="490" />
              <mxPoint x="110" y="490" />
            </Array>
          </mxGeometry>
        </mxCell>
        <mxCell id="Y99GI6rGSwbLpOmnozQ8-23" value="" style="rhombus;whiteSpace=wrap;html=1;" vertex="1" parent="1">
          <mxGeometry x="1100" y="280" width="80" height="80" as="geometry" />
        </mxCell>
      </root>
    </mxGraphModel>
  </diagram>
</mxfile>
